<?xml version="1.0" encoding="UTF-8"?>
<svg version="1.1" viewBox="0 0 2048 860" width="1280" height="1280" xmlns="http://www.w3.org/2000/svg">
<path transform="translate(1679,114)" d="m0 0h26l15 4 12 6 11 9 8 9 6 10 2 5h2l2-5 8-11 12-12 11-7 11-5 12-3h29l12 3 14 6 13 10 9 12 7 14 4 14 2 17 1 226-2 2h-90l-1-1-1-196-2-10-3-6-5-5-10-2-8 2-9 6-4 8-2 10-1 35-1 159h-91l-2-2-1-197-4-12-4-6-6-4h-13l-7 4-6 8-2 7-1 17-1 184-1 1h-91l-1-2v-295l1-1h85l1 1v26l-1 10 4-4 7-11 9-10 12-9 12-6z" fill="#007FC1"/>
<path transform="translate(1826,452)" d="m0 0 19 1 14 4 11 6 9 7 7 7 10 15 1 4h2l2-6 10-13 8-8 15-10 13-5 13-2h17l15 2 13 5 11 7 9 8 8 11 7 15 4 15 2 21 1 218-1 1-39 1h-53l-1-1-1-193-2-13-5-8-4-3-3-1h-11l-8 4-6 7-4 11-1 20-1 176-21 1h-70l-1-1-1-10-1-187-3-10-6-10-6-3h-10l-10 5-4 5-3 10-1 14-1 186-19 1h-73l-1-1v-297h69l17 1 1 36 6-9 7-9 9-9 15-10 11-4z" fill="#033267"/>
<path transform="translate(698,114)" d="m0 0h28l12 3 12 5 13 9 7 7 8 11 8 14 6 14 5 15 5 22 3 24 1 15v33l-2 22-4 22-6 22-7 19-9 16-8 10-8 9-13 9-11 5-13 3-7 1h-11l-15-3-14-6-13-10-9-10-4-6-1 1v127l-94 1-1-1v-397h88v33l-1 7h2l2-5 7-14 9-10 8-7 12-6zm-26 74-8 4-7 8-5 12-1 82 1 25 3 14 6 10 5 4 7 3h10l10-5 6-8 4-11 3-17 2-25v-23l-2-34-4-17-6-12-7-8-4-2z" fill="#FECB08"/>
<path transform="translate(150,452)" d="m0 0 23 1 14 4 11 6 10 8 9 10 9 14 9 19 7 22 5 25 2 19 1 32-1 22-5 32-7 26-6 15-7 14-12 16-10 10-13 8-14 5-10 2h-17l-14-3-16-8-11-9-12-14-1 121-3 1h-91v-392h87l1 1v39l11-21 13-13 12-7 9-3zm-31 74-9 3-8 7-5 10-2 8v102l3 14 5 10 7 6 6 2h11l8-4 7-8 4-11 4-23 1-10v-51l-3-25-6-16-6-8-5-4-5-2z" fill="#033267"/>
<path transform="translate(0,18)" d="m0 0h93l1 1 1 211 7-9 11-19 11-15 36-51 11-16h83l-4 6-13 18-14 20-10 14-13 18-12 17-6 9 3 9 31 74 20 48 16 38 10 23 1 3-4 1h-95l-12-29-22-59-9-24-2-5-5 5-10 15-8 13-1 7v75l-3 2h-92z" fill="#FF2C01"/>
<path transform="translate(960,429)" d="m0 0 3 1v325l-1 1h-88l-1-1v-36l-4 5-10 16-10 10-12 7-13 4-6 1h-22l-14-3-16-8-8-6-8-7-10-13-9-16-9-25-5-21-3-19-2-30v-13l2-29 5-29 6-21 9-21 9-15 11-12 10-9 16-8 9-3 6-1h27l14 4 15 8 10 9 6 6 1-43 7 1 11 3 18 2 19-1 21-5zm-119 95-9 2-8 6-5 8-4 16-4 30-1 18v24l2 20 4 15 6 12 8 7 8 3h7l10-5 6-7 5-14 2-13v-88l-3-15-6-10-5-5-6-3z" fill="#033267"/>
<path transform="translate(274,120)" d="m0 0h93l2 1 1 199 3 10 2 5 5 2 3 1h13l10-6 5-8 4-13 1-8 1-183h93l2 3v294l-2 1h-87l-1-1v-44l-3 5-5 10-8 11-5 6-14 10-11 5-20 4h-17l-15-3-11-4-13-9-7-7-9-14-6-16-3-19-1-16z" fill="#FF2C01"/>
<path transform="translate(1512,452)" d="m0 0h15l21 2 16 4 15 6 15 9 13 11 11 12 10 15 8 16 6 15 6 22 3 20 2 31v14l-1 1-163 1 1 14 4 16 6 12 5 6 9 4 4 1h18l12-5 7-7 5-10 2-11 1-1 25 1 60 4 4 1-2 12-6 18-11 21-8 11-9 10-11 10-13 8-17 8-18 5-20 3h-29l-18-3-20-7-17-9-11-8-10-9-10-11-10-15-8-16-6-15-5-17-3-17-1-11v-29l3-21 5-20 7-20 12-23 8-12 11-12 8-8 10-7 16-9 15-6 17-4zm3 69-12 6-6 8-5 12-3 14v10l1 1h66l1-1-1-16-4-16-6-9-7-6-8-3z" fill="#033267"/>
<path transform="translate(1363,114)" d="m0 0h31l21 4 14 5 14 7 11 8 10 9 5 5 7 8 9 14 8 16 7 19 5 20 3 23 1 17v22l-2 1h-161l1 15 4 17 5 10 9 8 8 3 5 1h11l9-2 11-7 5-7 4-10 1-9 34 2 54 4 2 1-3 14-6 17-8 16-9 13-9 10-9 9-13 9-16 8-15 5-15 3-21 2h-13l-22-3-17-5-21-10-14-10-17-17-12-17-8-15-8-21-5-19-2-13v-45l4-22 4-15 8-20 11-21 10-14 12-13 15-11 16-9 16-6zm9 68-9 4-7 6-5 8-5 17-1 16 6 1h61l1-1v-11l-3-16-7-14-7-6-10-4z" fill="#9CC94D"/>
<path transform="translate(834,120)" d="m0 0h94l1 1 1 199 2 8 3 5v2l5 2 3 1h13l10-6 4-5 4-12 2-14 1-181h94l1 1v236l-1 1h-31v59l-1 1h-56l-1-1v-23l1-22-3 3-4 10-12 17-9 8-14 8-13 4-12 2h-17l-14-3-11-4-10-6-10-9-8-11-7-17-3-12-2-23z" fill="#FECB08"/>
<path transform="translate(1037,469)" d="m0 0 4 1 9 6 16 6 20 4 22 2h29l15-2 17-6 15-8 5-3 5 1 14 12 9 11 8 16 4 15 2 18 1 170 2 23 4 16v5h-91l-1-3-1-15v-20h-2l-2 5-11 13-9 9-14 9-13 5-13 3-17 1-20-2-15-5-13-7-11-9-9-10-8-14-6-17-3-20v-14l3-17 5-15 8-15 9-11 7-8 15-11 16-8 16-5 23-6 31-5 26-3v-15l-2-9-4-8-5-4-5-2-8-1h-9l-9 2-9 5-7 8-4 8-3 11-78-9-8-2-1-2 8-24 7-14 9-12 9-10 11-9zm98 147-22 6-16 8-9 7-6 10-3 8v17l4 10 4 5 8 4 4 1h11l12-5 7-6 5-9 3-10 2-16v-30z" fill="#033267"/>
<path transform="translate(534,453)" d="m0 0 2 1 1 24v60l-6 14-3 20-1 11v47l2 21 3 16 5 12 5 7 10 4h15l8-4 5-6 5-12 4-21 1-11 1-23v-15l-2-33-4-16-4-10v-2h98l3 3 8 32 3 22v33l-4 24-5 18-8 19-8 14-10 14-7 8-8 7-11 9-18 10-15 6-23 5-7 1h-21l-20-3-18-6-16-8-12-8-10-9-5-4-7-8-11-15-11-21-8-24-4-20-1-10v-35l3-21 5-20 7-19 10-19 12-16 18-18 14-9 19-9z" fill="#033267"/>
<path transform="translate(1275,458)" d="m0 0h93l1 1v311l-2 19-4 17-5 12-7 12-8 9-15 11-17 8-6 2h-44l-31-5-2-2v-82l21 3 9-1 8-4 4-6 2-6 1-7 1-112z" fill="#033267"/>
<path transform="translate(1119,119)" d="m0 0 91 1v261l-3 24-4 15-8 15-8 11-10 9-12 7-15 5-10 2h-36l-26-3-13-3-2-2v-80l12 1 8 1h11l10-3 5-5 3-5 2-9 1-14 1-227z" fill="#9CC94D"/>
<path transform="translate(396,452)" d="m0 0h24l2 1v102l-1 2-11-1h-15l-12 3-10 6-6 9-5 16-2 12-1 153-5 1h-89l-1-8v-289l1-1h79l1 1v38l-1 18h2l3-12 10-25 8-10 9-9 12-6z" fill="#033267"/>
<path transform="translate(1147)" d="m0 0h33l15 10 11 11 8 16 2 9v11l-3 11-6 12-9 11-12 8-10 3-5 1h-16l-15-5-11-8-7-8-8-16-2-7v-15l4-13 7-12 8-8 15-10z" fill="#9CC94D"/>
<path transform="translate(1983,117)" d="m0 0h24l13 4 11 8 9 11 7 13 1 4v23l-7 14-11 12-9 7-9 4-12 2h-11l-11-2-10-5-12-11-7-11-4-11-1-7v-8l4-16 7-12 8-9 11-7zm8 12-13 4-10 8-6 10-3 10v16l4 9 4 6 7 7 6 4 5 2 6 1h9l13-4 8-6 8-9 3-7 1-5v-15l-4-11-6-9-10-7-13-4z" fill="#007FC1"/>
<path transform="translate(1991,141)" d="m0 0h13l10 4 4 5 2 5-1 9-6 8 1 6 3 5v5l-6 5h-5l-5-7-3-9-7-2-1 4-1 13-5 2-5-2-4-5-1-6v-29l3-7 6-3zm2 8-3 3-1 2v7l2 3 3 1h8l2-5-1-7-4-3z" fill="#007FC1"/>
</svg>
